<?xml version="1.0" encoding="UTF-8"?>
<svg version="1.1" xmlns="http://www.w3.org/2000/svg" xmlns:xlink="http://www.w3.org/1999/xlink">
<defs></defs>
<symbol id="burger-menu" fill="none" viewBox="0 0 30 18"><path fill="currentColor" d="M30 0v2H0V0zM30 8v2H15V8zM30 16v2H0v-2z"/></symbol>
<symbol id="chevron-down" fill="none" viewBox="0 0 24 24"><path fill="currentColor" d="M12 16.75a.74.74 0 0 1-.53-.22l-8-8a.75.75 0 0 1 1.06-1.06L12 14.94l7.47-7.47a.75.75 0 0 1 1.06 1.06l-8 8a.74.74 0 0 1-.53.22"/></symbol>
<symbol id="chevron-left" fill="none" viewBox="0 0 24 24"><path fill="#0F0F0F" d="M16 20.75a.74.74 0 0 1-.53-.22l-8-8a.75.75 0 0 1 0-1.06l8-8a.75.75 0 0 1 1.06 1.06L9.06 12l7.47 7.47a.75.75 0 0 1-.53 1.28"/></symbol>
<symbol id="chevron-up" fill="none" viewBox="0 0 24 24"><path fill="currentColor" d="M20 16.75a.74.74 0 0 1-.53-.22L12 9.06l-7.47 7.47a.75.75 0 0 1-1.06-1.06l8-8a.75.75 0 0 1 1.06 0l8 8a.75.75 0 0 1-.53 1.28"/></symbol>
<symbol id="chevron-right" fill="none" viewBox="0 0 24 24"><path fill="currentColor" d="M8 20.75a.74.74 0 0 0 .53-.22l8-8a.75.75 0 0 0 0-1.06l-8-8a.75.75 0 0 0-1.06 1.06L14.94 12l-7.47 7.47A.75.75 0 0 0 8 20.75"/></symbol>
<symbol id="cookie" viewBox="0 0 24 24"><path d="M12 3a9 9 0 0 0-9 9 9 9 0 0 0 9 9 9 9 0 0 0 9-9c0-.5-.04-1-.13-1.5C20.6 10 20 10 20 10h-2V9c0-1-1-1-1-1h-2V7c0-1-1-1-1-1h-1V4c0-1-1-1-1-1M9.5 6A1.5 1.5 0 0 1 11 7.5 1.5 1.5 0 0 1 9.5 9 1.5 1.5 0 0 1 8 7.5 1.5 1.5 0 0 1 9.5 6m-3 4A1.5 1.5 0 0 1 8 11.5 1.5 1.5 0 0 1 6.5 13 1.5 1.5 0 0 1 5 11.5 1.5 1.5 0 0 1 6.5 10m5 1a1.5 1.5 0 0 1 1.5 1.5 1.5 1.5 0 0 1-1.5 1.5 1.5 1.5 0 0 1-1.5-1.5 1.5 1.5 0 0 1 1.5-1.5m5 2a1.5 1.5 0 0 1 1.5 1.5 1.5 1.5 0 0 1-1.5 1.5 1.5 1.5 0 0 1-1.5-1.5 1.5 1.5 0 0 1 1.5-1.5M11 16a1.5 1.5 0 0 1 1.5 1.5A1.5 1.5 0 0 1 11 19a1.5 1.5 0 0 1-1.5-1.5A1.5 1.5 0 0 1 11 16"/></symbol>
<symbol id="email" aria-hidden="true" class="trvtmpl-icon trvtmpl-icon--mail-icon" viewBox="0 0 18 12"><g fill="currentColor" clip-path="url(#a)"><path d="m17.842 1.179-5.46 4.82 5.46 4.822c.098-.183.158-.386.158-.602V1.78c0-.216-.06-.419-.158-.602M16.418.375H1.582c-.243 0-.471.053-.678.14l6.978 6.172c.617.548 1.62.548 2.237 0L17.096.516a1.7 1.7 0 0 0-.678-.141M.159 1.179A1.26 1.26 0 0 0 0 1.78v8.438c0 .216.06.419.159.602L5.618 6z"/><path d="m11.637 6.663-.773.686c-1.028.914-2.7.914-3.728 0l-.773-.686-5.459 4.821c.207.088.435.141.678.141h14.836c.244 0 .472-.053.678-.14z"/></g></symbol>
<symbol id="geo" aria-hidden="true" class="trvtmpl-icon trvtmpl-icon--address-icon" viewBox="0 0 12 16"><path fill="currentColor" d="M5.383 15.677C.843 9.095 0 8.42 0 6a6 6 0 1 1 12 0c0 2.42-.843 3.095-5.383 9.677a.75.75 0 0 1-1.234 0M6 8.5a2.5 2.5 0 1 0 0-5 2.5 2.5 0 0 0 0 5"/></symbol>
<symbol id="highlighted-lines" fill="none" viewBox="0 0 289 28"><path stroke="currentColor" stroke-width="3" d="M35.788 2h225.396L1 13.52h287L142.567 26"/></symbol>
<symbol id="tg-circled" aria-hidden="true" viewBox="0 0 24 24"><path fill="currentColor" d="M12 0a12 12 0 1 0 .003 23.999A12 12 0 0 0 12 0m4.92 7.117c.097-.001.31.023.451.137a.5.5 0 0 1 .168.316c.015.091.034.298.018.46-.176 1.847-.937 6.332-1.325 8.402-.162.876-.486 1.17-.798 1.199-.68.062-1.195-.45-1.852-.881-1.028-.674-1.608-1.094-2.607-1.752-1.154-.76-.406-1.178.252-1.861.171-.179 3.164-2.898 3.22-3.145.008-.03.015-.146-.054-.207-.068-.06-.17-.04-.243-.023q-.154.034-4.93 3.258-.697.48-1.267.468c-.416-.009-1.22-.236-1.816-.43-.73-.237-1.315-.363-1.264-.767q.04-.315.871-.646a569 569 0 0 1 6.815-2.936c3.246-1.35 3.92-1.584 4.36-1.592" class="trvtmpl-socials-path trvtmpl-socials-path--bg"/><path fill="none" d="M5.743 11.645a568 568 0 0 1 6.815-2.936c3.247-1.35 3.92-1.584 4.361-1.592.097-.002.312.022.453.136.117.096.15.226.166.317.015.09.035.298.018.46-.175 1.848-.936 6.332-1.324 8.402-.162.876-.485 1.17-.798 1.198-.679.063-1.194-.448-1.851-.88-1.028-.674-1.609-1.093-2.608-1.751-1.154-.76-.405-1.178.252-1.862.172-.178 3.163-2.898 3.22-3.145.007-.03.014-.146-.055-.206-.068-.061-.168-.04-.241-.024q-.155.035-4.93 3.258-.7.48-1.268.469c-.417-.01-1.22-.236-1.817-.43-.73-.238-1.313-.364-1.262-.768q.039-.316.87-.646" class="trvtmpl-socials-path trvtmpl-socials-path--pattern"/></symbol>
<symbol id="quote" fill="none" viewBox="0 0 52 40"><path fill="currentColor" d="M41.754 40q-6.47 0-9.244-4.269-2.775-4.426-2.774-9.328 0-4.11 1.233-8.537A31.2 31.2 0 0 1 34.82 9.17 20.7 20.7 0 0 1 41.6 2.53Q45.914 0 51.923 0q.154 0 0 1.265v3.952l-1.695.633q-1.695.474-4.006 2.055-2.31 1.423-4.006 4.11-1.695 2.689-1.694 6.957.308-.158.77-.158h.77q4.469 0 7.088 2.846 2.773 2.846 2.773 7.273 0 4.9-2.927 8.063Q46.222 40 41.754 40m-29.736 0q-6.471 0-9.245-4.269Q0 31.305 0 26.403q0-4.11 1.233-8.537A31.2 31.2 0 0 1 5.084 9.17a20.7 20.7 0 0 1 6.78-6.64Q16.178 0 22.187 0q.153 0 0 1.265v3.952l-1.695.633q-1.695.474-4.006 2.055-2.31 1.423-4.006 4.11-1.695 2.689-1.695 6.957.308-.158.77-.158h.77q4.47 0 7.088 2.846 2.775 2.846 2.774 7.273 0 4.9-2.928 8.063Q16.485 40 12.018 40"/></symbol>
<symbol id="vk-circled" aria-hidden="true" viewBox="0 0 24 24"><path fill="currentColor" d="M12 0a12 12 0 1 0 .003 23.999A12 12 0 0 0 12 0M4.049 7.299H6.79c.09 4.58 2.109 6.52 3.709 6.92v-6.92h2.58v3.951c1.58-.17 3.24-1.971 3.8-3.951h2.58a7.63 7.63 0 0 1-3.509 4.982 7.9 7.9 0 0 1 4.11 5.008h-2.842a4.946 4.946 0 0 0-4.139-3.57v3.57h-.31c-5.47 0-8.591-3.75-8.721-9.99"/><path fill="none" d="M4.05 7.3c.13 6.24 3.25 9.99 8.72 9.99h.31v-3.57a4.94 4.94 0 0 1 4.14 3.57h2.84a7.9 7.9 0 0 0-4.11-5.01 7.62 7.62 0 0 0 3.51-4.98h-2.58c-.56 1.98-2.22 3.78-3.8 3.95V7.3H10.5v6.92c-1.6-.4-3.62-2.34-3.71-6.92Z"/></symbol>
<symbol id="phone" aria-hidden="true" viewBox="0 0 14 14"><path fill="currentColor" d="M13.633 10.275 11.675 8.32c-.7-.698-1.888-.419-2.168.488-.21.628-.909.977-1.538.838-1.398-.35-3.286-2.163-3.636-3.629-.21-.628.21-1.326.84-1.535.908-.279 1.188-1.465.489-2.163L3.704.366c-.56-.488-1.399-.488-1.888 0L.487 1.692c-1.328 1.396.14 5.094 3.427 8.373 3.286 3.28 6.992 4.815 8.39 3.42l1.329-1.326c.49-.559.49-1.396 0-1.884"/></symbol>
<symbol id="wa-circled" aria-hidden="true" viewBox="0 0 24 24"><path fill="currentColor" d="M12 0a12 12 0 1 0 .003 24A12 12 0 0 0 12 0m.031 4.5c1.998 0 3.873.775 5.283 2.18a7.37 7.37 0 0 1 2.186 5.258c-.002 4.098-3.352 7.433-7.469 7.433h-.004a7.5 7.5 0 0 1-3.568-.904L4.5 19.5l1.06-3.852a7.4 7.4 0 0 1-.997-3.716C4.564 7.833 7.915 4.5 12.03 4.5M9.264 8.072a.69.69 0 0 0-.516.26c-.177.209-.676.713-.676 1.738 0 1.026.693 2.017.79 2.157.096.139 1.335 2.31 3.3 3.146 1.633.694 1.966.556 2.32.522.355-.035 1.144-.506 1.305-.993.161-.486.162-.903.113-.99-.048-.087-.177-.14-.37-.244-.194-.104-1.144-.608-1.321-.678s-.307-.103-.436.106c-.128.208-.498.677-.61.816-.114.14-.228.157-.42.053-.194-.105-.817-.325-1.556-1.035-.574-.553-.96-1.235-1.074-1.444-.112-.208-.013-.322.084-.425.087-.094.195-.244.291-.366.097-.121.13-.208.194-.347.064-.14.03-.26-.018-.364s-.424-1.136-.596-1.548c-.144-.348-.295-.354-.433-.36-.113-.005-.243-.004-.371-.004m-4.323 4.06a.338.338 0 0 1 .002 0z"/><path fill="none" d="M12.031 4.5c-4.116 0-7.467 3.333-7.468 7.432-.001 1.31.344 2.589.998 3.716L4.5 19.5l3.959-1.033a7.5 7.5 0 0 0 3.568.904h.004c4.117 0 7.467-3.335 7.469-7.433a7.37 7.37 0 0 0-2.186-5.258 7.44 7.44 0 0 0-5.283-2.18M9.264 8.072c.128 0 .258-.001.37.004.139.006.29.012.434.36.172.412.548 1.444.596 1.548s.082.225.018.364c-.065.139-.097.226-.194.347-.096.122-.204.272-.29.366-.098.103-.197.217-.085.425.113.209.5.891 1.074 1.444.74.71 1.362.93 1.555 1.035s.307.086.42-.053.483-.608.611-.816c.13-.209.259-.175.436-.106.177.07 1.127.574 1.32.678s.323.157.371.244c.049.087.048.504-.113.99-.16.487-.95.958-1.305.993-.354.034-.687.172-2.32-.522-1.965-.835-3.204-3.007-3.3-3.146-.097-.14-.79-1.131-.79-2.157 0-1.025.499-1.53.676-1.738a.69.69 0 0 1 .516-.26"/></symbol>
</svg>