<svg class="trvtmpl-icon trvtmpl-icon--mail-icon" viewBox="0 0 18 12" width="18" height="12" fill="" aria-hidden="true" focusable="false">
        <defs>
            <clipPath id="clip0_1953_9969">
                <rect width="18" height="12" fill="white"></rect>
            </clipPath>
        </defs>
        <g clip-path="url(#clip0_1953_9969)">
            <path d="M17.8416 1.17871L12.3826 5.99993L17.8416 10.8211C17.9403 10.6378 18.0002 10.4351 18.0002 10.2187V1.78118C18.0002 1.56471 17.9403 1.36205 17.8416 1.17871Z" fill="currentColor"></path>
            <path d="M16.4181 0.375H1.5822C1.33867 0.375 1.11068 0.428219 0.904419 0.515938L7.88163 6.68667C8.49856 7.23504 9.50177 7.23504 10.1187 6.68667L17.0959 0.515938C16.8896 0.428219 16.6617 0.375 16.4181 0.375Z" fill="currentColor"></path>
            <path d="M0.158555 1.17871C0.0598711 1.36205 0 1.56471 0 1.78118V10.2187C0 10.4351 0.0598711 10.6378 0.158555 10.8211L5.61758 5.99993L0.158555 1.17871Z" fill="currentColor"></path>
            <path d="M11.6369 6.66284L10.8644 7.3495C9.83646 8.26322 8.16383 8.26322 7.1359 7.3495L6.36345 6.66284L0.904419 11.4841C1.11068 11.5718 1.33867 11.625 1.5822 11.625H16.4181C16.6617 11.625 16.8896 11.5718 17.0959 11.4841L11.6369 6.66284Z" fill="currentColor"></path>
        </g>
    </svg>