<svg width="52" height="40" viewBox="0 0 52 40" fill="none" xmlns="http://www.w3.org/2000/svg">
    <path
        d="M41.7541 40C37.44 40 34.3585 38.5771 32.5096 35.7312C30.6607 32.78 29.7363 29.6706 29.7363 26.4032C29.7363 23.6627 30.1472 20.8169 30.9689 17.8656C31.7906 14.809 33.0746 11.9104 34.8207 9.16995C36.5669 6.42951 38.8267 4.21607 41.6 2.52964C44.4761 0.843214 47.917 0 51.923 0C52.0257 0 52.0257 0.42161 51.923 1.26483C51.923 2.10804 51.923 3.00395 51.923 3.95256C51.923 4.79578 51.923 5.21739 51.923 5.21739C51.923 5.21739 51.358 5.42819 50.2281 5.8498C49.0983 6.16601 47.763 6.85112 46.2222 7.90514C44.6815 8.85375 43.3462 10.224 42.2163 12.0158C41.0864 13.8076 40.5215 16.1265 40.5215 18.9723C40.7269 18.8669 40.9837 18.8142 41.2919 18.8142C41.6 18.8142 41.8568 18.8142 42.0622 18.8142C45.041 18.8142 47.4035 19.7628 49.1496 21.6601C50.9985 23.5573 51.923 25.9816 51.923 28.9328C51.923 32.2003 50.9472 34.888 48.9956 36.996C47.1467 38.9987 44.7328 40 41.7541 40ZM12.0178 40C7.7037 40 4.62222 38.5771 2.77333 35.7312C0.924444 32.78 0 29.6706 0 26.4032C0 23.6627 0.410863 20.8169 1.23259 17.8656C2.05432 14.809 3.33827 11.9104 5.08444 9.16995C6.83062 6.42951 9.09037 4.21607 11.8637 2.52964C14.7398 0.843214 18.1807 0 22.1867 0C22.2894 0 22.2894 0.42161 22.1867 1.26483C22.1867 2.10804 22.1867 3.00395 22.1867 3.95256C22.1867 4.79578 22.1867 5.21739 22.1867 5.21739C22.1867 5.21739 21.6217 5.42819 20.4919 5.8498C19.362 6.16601 18.0267 6.85112 16.4859 7.90514C14.9452 8.85375 13.6099 10.224 12.48 12.0158C11.3501 13.8076 10.7852 16.1265 10.7852 18.9723C10.9906 18.8669 11.2474 18.8142 11.5556 18.8142C11.8637 18.8142 12.1205 18.8142 12.3259 18.8142C15.3047 18.8142 17.6672 19.7628 19.4133 21.6601C21.2622 23.5573 22.1867 25.9816 22.1867 28.9328C22.1867 32.2003 21.2109 34.888 19.2593 36.996C17.4104 38.9987 14.9965 40 12.0178 40Z"
        fill="currentColor" />
</svg>