<svg viewBox="0 0 24 24" width="24" height="24" fill="" aria-hidden="true" focusable="false">
<path fill="currentColor" class="trvtmpl-socials-path trvtmpl-socials-path--bg" d="M 12,0 C 8.8181396,0 5.7637484,1.2660216 3.515625,3.515625 1.2656317,5.7652384 0,8.8186996 0,12 0,15.181291 1.2656317,18.236634 3.515625,20.486328 5.7637484,22.735922 8.8181396,24 12,24 15.181891,24 18.236281,22.735922 20.484375,20.486328 22.734369,18.236634 24,15.181291 24,12 24,8.8186996 22.734369,5.7652384 20.484375,3.515625 18.236281,1.2660216 15.181891,0 12,0 Z m 4.919922,7.1171875 c 0.09679,-0.00165 0.310502,0.02295 0.451172,0.1367187 0.116871,0.095866 0.1515,0.22547 0.167968,0.3164063 0.01456,0.090947 0.03405,0.2971924 0.01758,0.4589844 -0.175307,1.8480168 -0.937058,6.3324521 -1.324219,8.4023441 -0.162557,0.875894 -0.486571,1.170639 -0.798828,1.199218 -0.679339,0.06247 -1.194216,-0.45003 -1.851563,-0.880859 -1.028142,-0.674345 -1.608516,-1.094075 -2.607422,-1.751953 -1.1541006,-0.760404 -0.405466,-1.178271 0.251953,-1.861328 0.171589,-0.178707 3.164075,-2.897827 3.220704,-3.1445315 0.0074,-0.030864 0.01468,-0.1464071 -0.05469,-0.2070313 C 14.325007,9.7243402 14.223382,9.7452832 14.15039,9.7617192 14.046264,9.785093 12.405394,10.870698 9.2207031,13.019531 8.7550468,13.339864 8.3329556,13.496462 7.953125,13.488281 7.5367667,13.479356 6.7338551,13.252494 6.1367188,13.058594 5.4062752,12.820602 4.8219105,12.69507 4.8730469,12.291016 4.8986096,12.080648 5.190831,11.864568 5.7441406,11.644531 9.1516626,10.16028 11.422714,9.1817593 12.558594,8.7089844 15.805376,7.358944 16.479849,7.1250391 16.919922,7.1171875 Z"></path>
<path fill="none" class="trvtmpl-socials-path trvtmpl-socials-path--pattern" d="m 5.7432825,11.64502 c 3.4075254,-1.484253 5.6791805,-2.4628676 6.8150615,-2.935643 3.246785,-1.3500417 3.9206,-1.584517 4.360673,-1.5923686 0.09679,-0.00165 0.312258,0.02228 0.452928,0.1360486 0.116871,0.095866 0.149701,0.2255187 0.16617,0.3164551 0.01456,0.090947 0.03474,0.2982125 0.01827,0.4600046 -0.175307,1.8480187 -0.936775,6.3325433 -1.323937,8.4024373 -0.162557,0.875895 -0.485759,1.169561 -0.798017,1.19814 -0.679339,0.06247 -1.194316,-0.448466 -1.851663,-0.879295 -1.028143,-0.674346 -1.60878,-1.094019 -2.607687,-1.751898 -1.1541021,-0.760405 -0.405426,-1.178379 0.251994,-1.861437 0.171589,-0.178707 3.162745,-2.898722 3.219374,-3.1454267 0.0074,-0.030864 0.01466,-0.1459083 -0.05471,-0.2065325 -0.06757,-0.060816 -0.168082,-0.039991 -0.241074,-0.023555 C 14.046538,9.7853241 12.404817,10.871439 9.220123,13.020274 8.7544662,13.340607 8.3326465,13.496683 7.9528155,13.488502 7.5364568,13.479577 6.7330213,13.252529 6.1358844,13.058629 5.4054401,12.820637 4.8228802,12.694841 4.8740166,12.290786 4.8995794,12.080418 5.1899723,11.865057 5.7432825,11.64502 Z"></path>
</svg>