<svg viewBox="0 0 24 24" width="24" height="24" fill="" aria-hidden="true" focusable="false">
<path fill="currentColor" d="M 12 0 C 8.8181332 2.9605918e-16 5.7637528 1.2660172 3.515625 3.515625 C 1.2656273 5.7652428 0 8.8186932 0 12 C 0 15.181297 1.2656273 18.23663 3.515625 20.486328 C 5.7637528 22.735926 8.8181332 24 12 24 C 15.181897 24 18.236277 22.735926 20.484375 20.486328 C 22.734373 18.23663 24 15.181297 24 12 C 24 8.8186932 22.734373 5.7652428 20.484375 3.515625 C 18.236277 1.2660172 15.181897 0 12 0 z M 4.0488281 7.2988281 L 6.7910156 7.2988281 C 6.8810155 11.878824 8.9000016 13.81875 10.5 14.21875 L 10.5 7.2988281 L 13.080078 7.2988281 L 13.080078 11.25 C 14.659977 11.0798 16.32086 9.2787261 16.880859 7.2988281 L 19.460938 7.2988281 C 19.249838 8.3257171 18.828609 9.2994109 18.224609 10.15625 C 17.62071 11.013149 16.847271 11.737251 15.951172 12.28125 C 16.951171 12.77825 17.834669 13.480351 18.542969 14.34375 C 19.251468 15.207249 19.768547 16.210964 20.060547 17.289062 L 17.21875 17.289062 C 16.95675 16.352663 16.425852 15.515859 15.689453 14.880859 C 14.953054 14.24586 14.044777 13.84035 13.080078 13.71875 L 13.080078 17.289062 L 12.769531 17.289062 C 7.2997367 17.288963 4.178828 13.538722 4.0488281 7.2988281 z "></path>
<path fill="none" d="m 4.0498,7.2998 c 0.13,6.2399 3.2499,9.9901 8.7197,9.9902 h 0.3106 v -3.5703 c 0.9647,0.1216 1.872,0.5252 2.6084,1.1602 0.7364,0.635 1.2692,1.4737 1.5312,2.4101 h 2.8399 c -0.292,-1.0781 -0.8091,-2.0827 -1.5176,-2.9462 -0.7083,-0.8634 -1.5918,-1.5665 -2.5918,-2.0635 0.8961,-0.544 1.6705,-1.2672 2.2744,-2.1241 0.604,-0.85684 1.0243,-1.82951 1.2354,-2.8564 h -2.5801 c -0.56,1.9799 -2.2199,3.78 -3.7998,3.9502 V 7.2998 H 10.5 v 6.9199 C 8.9,13.8197 6.88004,11.8798 6.79004,7.2998 Z"></path>
</svg>