<svg  viewBox="0 0 24 24" width="24" height="24" fill="" aria-hidden="true" focusable="false">
<path fill="currentColor" d="M 12,0 C 8.818146,0 5.763744,1.266026 3.515625,3.515625 1.2656361,5.765234 0,8.818706 0,12 0,15.181285 1.2656361,18.236638 3.515625,20.486328 5.763744,22.735918 8.818146,24 12,24 15.181885,24 18.236285,22.735918 20.484375,20.486328 22.734365,18.236638 24,15.181285 24,12 24,8.818706 22.734365,5.765234 20.484375,3.515625 18.236285,1.266026 15.181885,0 12,0 Z m 0.03125,4.5 c 1.998098,9.3e-4 3.873205,0.7748189 5.283203,2.1796875 C 18.724552,8.0847661 19.5008,9.951382 19.5,11.9375 c -0.0017,4.098196 -3.352454,7.433594 -7.46875,7.433594 h -0.0039 c -1.249999,-4e-4 -2.4775004,-0.312498 -3.5683596,-0.904297 L 4.5,19.5 5.5605469,15.648438 C 4.9068475,14.521039 4.56203,13.241439 4.5625,11.931641 4.56429,7.8332247 7.9147436,4.5 12.03125,4.5 Z M 9.2636719,8.0722656 c -0.1289499,0 -0.3385252,0.051176 -0.515625,0.2597656 -0.1772598,0.2085998 -0.6757813,0.7127723 -0.6757813,1.7382808 0,1.025589 0.6925326,2.017051 0.7890625,2.15625 0.09669,0.139 1.3359829,2.311086 3.3007809,3.146485 1.632999,0.694399 1.965813,0.556284 2.320313,0.521484 0.3544,-0.0347 1.143688,-0.505488 1.304687,-0.992187 0.1611,-0.4867 0.161582,-0.903135 0.113282,-0.990235 -0.0483,-0.0869 -0.177794,-0.13994 -0.371094,-0.24414 -0.1934,-0.1043 -1.143113,-0.608235 -1.320313,-0.677735 -0.177199,-0.0695 -0.306547,-0.103231 -0.435546,0.105469 -0.1288,0.2084 -0.498529,0.677407 -0.611329,0.816406 -0.1128,0.1393 -0.226622,0.157035 -0.419921,0.05274 -0.1934,-0.1046 -0.816089,-0.325157 -1.554688,-1.035156 -0.574699,-0.5525 -0.961419,-1.23466 -1.074219,-1.44336 -0.11275,-0.2084 -0.01292,-0.321881 0.08399,-0.425781 0.0868,-0.0934 0.194315,-0.243535 0.291015,-0.365235 0.0964,-0.121699 0.12896,-0.208556 0.19336,-0.347656 0.0645,-0.1391 0.03072,-0.258971 -0.01758,-0.363281 C 10.615663,9.8801151 10.240229,8.8477265 10.068359,8.4355469 9.9235193,8.0884072 9.7725255,8.0822719 9.6347656,8.0761719 9.5220257,8.0710019 9.392462,8.0722656 9.2636719,8.0722656 Z M 4.9414062,12.132812 c -0.039636,0.05328 -0.061969,0.105614 -0.068359,0.158204 0.00639,-0.05259 0.030848,-0.104994 0.070312,-0.158204 z"></path>
<path fill="none" d="m 12.031253,4.5 c -4.1165067,0 -7.4669603,3.3332247 -7.4687503,7.431641 -4.7e-4,1.309798 0.3443475,2.589398 0.9980469,3.716797 L 4.5000027,19.5 8.4589871,18.466797 c 1.0908592,0.591799 2.3183609,0.903897 3.5683599,0.904297 h 0.0039 c 4.116296,0 7.46705,-3.335398 7.46875,-7.433594 C 19.500803,9.951382 18.724555,8.0847661 17.314456,6.6796875 15.904458,5.2748189 14.029351,4.50093 12.031253,4.5 Z M 9.2636746,8.0722656 c 0.1287901,0 0.2583538,-0.00126 0.3710937,0.00391 0.1377599,0.0061 0.2887537,0.012235 0.4335937,0.359375 0.17187,0.4121796 0.547304,1.4445682 0.595703,1.5488281 0.0483,0.1043103 0.08208,0.2241813 0.01758,0.3632813 -0.0644,0.1391 -0.09696,0.225957 -0.19336,0.347656 -0.0967,0.1217 -0.204215,0.271835 -0.291015,0.365235 -0.0969,0.1039 -0.196735,0.217381 -0.08399,0.425781 0.1128,0.2087 0.49952,0.89086 1.074219,1.44336 0.738599,0.709999 1.361288,0.930556 1.554688,1.035156 0.193299,0.1043 0.307121,0.08657 0.419921,-0.05274 0.1128,-0.138999 0.482529,-0.608006 0.611329,-0.816406 0.128999,-0.2087 0.258347,-0.174969 0.435546,-0.105469 0.1772,0.0695 1.126913,0.573435 1.320313,0.677735 0.1933,0.1042 0.322794,0.15724 0.371094,0.24414 0.0483,0.0871 0.04782,0.503535 -0.113282,0.990235 -0.160999,0.486699 -0.950287,0.957487 -1.304687,0.992187 -0.3545,0.0348 -0.687314,0.172915 -2.320313,-0.521484 C 10.19731,14.537647 8.9580167,12.365561 8.8613268,12.226561 8.7647968,12.087362 8.0722643,11.0959 8.0722643,10.070311 c 0,-1.0255088 0.4985215,-1.5296813 0.6757813,-1.7382811 0.1771038,-0.2085884 0.3866791,-0.2597643 0.515629,-0.2597643 z"></path>
</svg>